<?xml version="1.0" encoding="UTF-8" standalone="no"?>
<!-- Created with Inkscape (http://www.inkscape.org/) -->

<svg
   width="138.29634mm"
   height="138.29634mm"
   viewBox="0 0 138.29634 138.29634"
   version="1.1"
   id="svg5"
   sodipodi:docname="logo.svg"
   inkscape:version="1.2.2 (b0a8486541, 2022-12-01)"
   xmlns:inkscape="http://www.inkscape.org/namespaces/inkscape"
   xmlns:sodipodi="http://sodipodi.sourceforge.net/DTD/sodipodi-0.dtd"
   xmlns="http://www.w3.org/2000/svg"
   xmlns:svg="http://www.w3.org/2000/svg">
  <sodipodi:namedview
     id="namedview7"
     pagecolor="#ffffff"
     bordercolor="#999999"
     borderopacity="1"
     inkscape:showpageshadow="0"
     inkscape:pageopacity="0"
     inkscape:pagecheckerboard="0"
     inkscape:deskcolor="#d1d1d1"
     inkscape:document-units="mm"
     showgrid="false"
     inkscape:zoom="0.70710678"
     inkscape:cx="354.2605"
     inkscape:cy="270.11479"
     inkscape:window-width="1920"
     inkscape:window-height="1001"
     inkscape:window-x="0"
     inkscape:window-y="0"
     inkscape:window-maximized="1"
     inkscape:current-layer="layer1" />
  <defs
     id="defs2" />
  <g
     inkscape:label="Container"
     inkscape:groupmode="layer"
     id="layer1"
     transform="translate(-27.751505,-77.680679)">
    <rect
       style="fill:#e9d8a6;fill-opacity:1;stroke-width:0.264583"
       id="rect149"
       width="138.29634"
       height="138.29634"
       x="27.751505"
       y="77.680679"
       ry="6.8015943"
       inkscape:label="Container"
       inkscape:export-filename="logo.png"
       inkscape:export-xdpi="96"
       inkscape:export-ydpi="96" />
    <g
       id="g8036"
       transform="translate(-2.9637528,-9.1618343)">
      <g
         id="g6586">
        <path
           id="path1352-5"
           style="fill:#0a9396;fill-opacity:0.680183;stroke-width:0.353171"
           d="m 69.790912,109.4209 c -3.596534,-0.0284 -6.492241,2.94525 -6.492241,6.60355 v 6.98037 l 2.949153,15.06014 c 5.631626,26.11049 4.57361,14.04926 18.867504,15.20239 6.231142,1.09257 11.945836,8.67859 7.442836,30.72399 0,5.59178 4.618982,10.64609 10.116546,10.64609 h 1.22778 c 5.49754,0 9.92337,-4.50169 9.92337,-10.09348 -1.41602,-19.9827 -5.70985,-50.55735 9.47731,-48.52468 3.85726,2.14859 6.37132,10.10151 11.86886,10.10151 h 1.22777 c 11.84303,-1.65734 9.64639,-22.56335 9.64639,-22.56335 l 0.20811,-6.98036 c 0.16513,-5.53851 -2.24446,-6.57 -6.49225,-6.60355 z"
           sodipodi:nodetypes="ssccccssccsccsss" />
        <path
           id="path1352"
           style="fill:#ca6702;fill-opacity:1;stroke-width:0.381003"
           d="m 60.52824,111.40661 c -3.913074,-0.0304 -7.063651,3.15046 -7.063651,7.06365 0,0 1.084901,5.5644 2.460654,7.9867 6.979205,12.28835 -1.388187,36.45749 9.988627,38.53485 4.122001,1.29236 9.156901,-7.13877 11.287551,-6.68372 6.779573,1.1687 12.99724,9.28328 8.097913,32.86471 0,5.9814 5.025522,11.38787 11.006925,11.38787 h 1.335836 c 5.981405,0 10.796765,-4.81535 10.796765,-10.79675 -1.54065,-21.37501 -6.21239,-54.07998 10.31145,-51.90568 4.19675,2.2983 6.93208,10.80534 12.91348,10.80534 h 1.33584 c 12.88538,-1.77281 10.4954,-24.13547 10.4954,-24.13547 l 0.22643,-7.46673 c 0.17966,-5.9244 -2.44201,-7.02777 -7.06365,-7.06365 z"
           sodipodi:nodetypes="ssscccssccsccsss" />
      </g>
      <path
         id="rect149-6"
         style="fill:#f2f2f2;fill-opacity:0.797774;stroke-width:0.0241121"
         inkscape:label="Container"
         d="m 100.70212,173.83029 c 1.21488,-1.20895 2.13438,-0.21819 2.3089,0 4.20881,3.59346 1.53933,20.61741 -0.11766,22.14552 -0.97239,0.89675 -2.19124,0.57442 -2.19124,0.57442 -4.470472,-1.34756 -0.795749,-12.27437 -0.37918,-14.42474 0.41657,-2.15037 -0.627024,-7.29391 0.37918,-8.2952 z"
         sodipodi:nodetypes="scsccs" />
    </g>
  </g>
</svg>
